<svg width="24" height="22" viewBox="0 0 24 22" fill="none" xmlns="http://www.w3.org/2000/svg">
<path d="M16.5 8.25C16.5 9.34402 16.0259 10.3932 15.182 11.1668C14.3381 11.9404 13.1935 12.375 12 12.375C10.8065 12.375 9.66193 11.9404 8.81802 11.1668C7.97411 10.3932 7.5 9.34402 7.5 8.25C7.5 7.15598 7.97411 6.10677 8.81802 5.33318C9.66193 4.5596 10.8065 4.125 12 4.125C13.1935 4.125 14.3381 4.5596 15.182 5.33318C16.0259 6.10677 16.5 7.15598 16.5 8.25V8.25Z" fill="#718096"/>
<path fill-rule="evenodd" clip-rule="evenodd" d="M0 11C0 8.08262 1.26428 5.28473 3.51472 3.22183C5.76516 1.15893 8.8174 0 12 0C15.1826 0 18.2348 1.15893 20.4853 3.22183C22.7357 5.28473 24 8.08262 24 11C24 13.9174 22.7357 16.7153 20.4853 18.7782C18.2348 20.8411 15.1826 22 12 22C8.8174 22 5.76516 20.8411 3.51472 18.7782C1.26428 16.7153 0 13.9174 0 11V11ZM12 1.375C10.0227 1.3751 8.08555 1.887 6.4116 2.85179C4.73766 3.81658 3.39492 5.19504 2.53795 6.82852C1.68097 8.46199 1.34458 10.2841 1.5675 12.0851C1.79042 13.8861 2.56358 15.5928 3.798 17.0087C4.863 15.4357 7.2075 13.75 12 13.75C16.7925 13.75 19.1355 15.4344 20.202 17.0087C21.4364 15.5928 22.2096 13.8861 22.4325 12.0851C22.6554 10.2841 22.319 8.46199 21.4621 6.82852C20.6051 5.19504 19.2623 3.81658 17.5884 2.85179C15.9145 1.887 13.9773 1.3751 12 1.375V1.375Z" fill="#718096"/>
</svg>
