<svg width="18" height="19" viewBox="0 0 18 19" fill="none" xmlns="http://www.w3.org/2000/svg">
<path d="M0 0H9.382C9.56766 9.91486e-05 9.74963 0.0518831 9.90753 0.149552C10.0654 0.247222 10.193 0.386919 10.276 0.553L11 2H17C17.2652 2 17.5196 2.10536 17.7071 2.29289C17.8946 2.48043 18 2.73478 18 3V14C18 14.2652 17.8946 14.5196 17.7071 14.7071C17.5196 14.8946 17.2652 15 17 15H10.618C10.4323 14.9999 10.2504 14.9481 10.0925 14.8504C9.93458 14.7528 9.80699 14.6131 9.724 14.447L9 13H2V19H0V0Z" fill="#718096"/>
</svg>
