<svg width="20" height="21" viewBox="0 0 20 21" fill="none" xmlns="http://www.w3.org/2000/svg">
<path d="M20 15.002C19.9996 16.3696 19.5321 17.696 18.675 18.7616C17.8179 19.8273 16.6226 20.5683 15.287 20.862L14.649 18.948C15.2332 18.8518 15.7888 18.6271 16.2758 18.2903C16.7627 17.9534 17.1689 17.5128 17.465 17H15C14.4696 17 13.9609 16.7893 13.5858 16.4142C13.2107 16.0391 13 15.5304 13 15V11C13 10.4696 13.2107 9.96086 13.5858 9.58579C13.9609 9.21071 14.4696 9 15 9H17.938C17.694 7.0669 16.7529 5.28927 15.2914 4.00068C13.8299 2.71208 11.9484 2.00108 10 2.00108C8.05155 2.00108 6.17007 2.71208 4.70857 4.00068C3.24708 5.28927 2.30603 7.0669 2.062 9H5C5.53043 9 6.03914 9.21071 6.41421 9.58579C6.78929 9.96086 7 10.4696 7 11V15C7 15.5304 6.78929 16.0391 6.41421 16.4142C6.03914 16.7893 5.53043 17 5 17H2C1.46957 17 0.960859 16.7893 0.585786 16.4142C0.210714 16.0391 0 15.5304 0 15V10C0 4.477 4.477 0 10 0C15.523 0 20 4.477 20 10V15.002Z" fill="#718096"/>
</svg>
